<?xml version="1.0" standalone="no"?>
<!DOCTYPE svg PUBLIC "-//W3C//DTD SVG 20010904//EN"
 "http://www.w3.org/TR/2001/REC-SVG-20010904/DTD/svg10.dtd">
<svg version="1.0" xmlns="http://www.w3.org/2000/svg"
 width="338.000000pt" height="338.000000pt" viewBox="0 0 338.000000 338.000000"
 preserveAspectRatio="xMidYMid meet">

<g transform="translate(0.000000,338.000000) scale(0.100000,-0.100000)"
fill="#1F2937" stroke="none">
<path d="M2464 3143 c-170 -182 -379 -519 -612 -988 -68 -137 -144 -288 -168
-335 -89 -169 -311 -618 -369 -745 -32 -71 -62 -134 -65 -138 -4 -4 -30 34
-59 85 -59 103 -147 237 -222 339 l-49 67 -53 -2 c-47 -2 -63 -9 -158 -73
-114 -77 -444 -247 -460 -238 -12 8 -49 -3 -49 -14 0 -5 30 -24 67 -44 347
-182 626 -407 935 -753 97 -110 102 -114 136 -109 19 2 38 7 42 12 13 14 154
272 330 603 268 506 352 653 472 825 225 324 496 674 734 948 176 202 170 195
156 209 -9 9 -8 16 5 30 9 10 14 20 12 22 -5 5 -533 322 -560 337 -17 9 -27 3
-65 -38z m364 -207 l194 -127 -129 -132 c-203 -210 -375 -431 -573 -740 -52
-81 -177 -271 -277 -422 -253 -384 -458 -728 -654 -1102 l-64 -121 -160 156
c-231 227 -450 397 -691 540 -63 37 -114 70 -114 74 0 11 376 256 446 291 63
31 64 31 79 12 47 -61 192 -287 250 -390 37 -66 80 -132 95 -147 16 -15 30
-33 32 -39 12 -35 41 18 117 212 209 533 299 723 546 1154 163 285 288 489
467 762 l140 212 51 -33 c29 -18 139 -90 245 -160z m-512 -48 c-51 -79 -125
-197 -166 -263 -79 -129 -105 -165 -71 -98 65 130 307 503 326 503 3 0 -37
-64 -89 -142z m708 -53 c11 -8 16 -15 10 -15 -5 0 -18 7 -28 15 -11 8 -16 15
-10 15 5 0 18 -7 28 -15z m-95 -162 c-8 -10 -45 -54 -83 -98 -37 -44 -122
-147 -189 -230 -138 -172 -167 -205 -110 -122 87 126 372 467 390 467 3 0 -1
-8 -8 -17z m-2549 -1537 c0 -8 -67 -46 -81 -46 -8 0 4 12 26 25 38 24 55 30
55 21z m951 -171 c-21 -55 -44 -101 -51 -103 -15 -5 -16 -6 40 116 24 51 44
91 46 89 2 -2 -14 -48 -35 -102z m408 -37 c-101 -194 -356 -665 -366 -677 -1
-2 -5 -2 -8 1 -10 10 364 698 381 698 2 0 -1 -10 -7 -22z m-439 -690 c0 -13
-209 203 -223 231 -5 9 44 -37 107 -101 64 -65 116 -123 116 -130z"/>
<path d="M2565 2983 c6 -5 48 -35 95 -65 47 -31 96 -68 109 -82 24 -25 24 -27
9 -60 -9 -18 -82 -111 -163 -205 -138 -162 -162 -201 -122 -201 13 0 256 276
305 346 12 18 22 44 22 57 0 37 -96 121 -225 197 -22 13 -35 19 -30 13z"/>
<path d="M733 1211 c-90 -53 -208 -136 -218 -151 -12 -20 34 6 123 70 51 35
120 79 153 97 34 18 53 33 43 33 -10 0 -56 -22 -101 -49z"/>
</g>
</svg>
