<svg width="495" height="913" viewBox="0 0 495 913" fill="none" xmlns="http://www.w3.org/2000/svg">
<g filter="url(#filter0_i_675_10971)">
<path d="M55.5136 223.485C47.6935 221 40.1333 218.598 32.5764 216.192C28.2599 214.818 23.955 213.421 19.6302 212.068C18.7719 211.799 18.1758 211.316 17.5879 210.776C14.0301 207.502 11.9778 203.779 13.0958 199.224C14.1512 194.934 17.149 192.136 22.3063 191.116C23.6634 190.848 25.0171 190.566 26.3589 190.234C32.029 188.827 34.8562 183.618 32.5912 178.922C31.6906 177.048 30.5726 175.249 29.5834 173.405C28.5132 171.406 27.6857 169.365 28.0531 167.106C28.6778 163.237 31.5486 160.979 35.6196 159.595C37.175 159.065 38.8388 158.875 40.4824 158.656C42.3671 158.406 44.2399 158.143 46.0601 157.643C49.953 156.57 52.4489 153.897 52.6648 150.448C52.849 147.52 52.2451 144.741 50.1565 142.153C51.7769 142.508 53.1385 143.037 54.5282 143.502C61.3898 145.791 68.1599 148.262 75.2159 150.128C78.2998 150.946 81.384 151.856 84.2749 153.05C86.812 154.096 88.595 155.959 89.5389 158.266C91.0654 161.997 90.7495 165.591 88.0901 168.925C86.6629 170.712 84.4809 171.665 82.1441 172.374C79.5228 173.169 76.7808 173.408 74.037 173.622C72.0851 173.773 70.2143 174.153 68.6086 175.182C66.4299 176.582 65.8555 178.543 66.9586 180.859C67.7648 182.559 68.8753 184.128 69.8638 185.752C71.2548 188.032 72.46 190.375 72.3267 193.007C72.0401 198.787 68.6614 203.806 61.1747 205.276C59.8176 205.543 58.4808 205.878 57.1491 206.233C54.4791 206.952 52.9591 208.571 52.2836 210.8C51.0334 214.915 52.133 218.684 54.6252 222.241C54.8641 222.581 55.1064 222.917 55.5169 223.481L55.5136 223.485Z" fill="#6FC85E" fill-opacity="0.4"/>
</g>
<g filter="url(#filter1_i_675_10971)">
<path d="M463.831 422.71C461.581 422.042 460.166 420.832 458.901 419.322C452.021 411.081 445.421 402.525 438.671 394.129C428.01 380.869 417.489 367.457 407.555 353.436C404.095 348.541 400.846 343.472 397.701 338.297C397.133 337.355 396.586 336.397 396.297 335.302C395.984 334.083 396.03 332.921 396.879 332.21C397.639 331.563 398.552 331.633 399.481 332.251C401.931 333.871 404.031 336.038 405.956 338.472C413.123 347.531 419.75 357.145 426.72 366.419C438.208 381.718 449.745 396.952 461.257 412.225C463.051 414.606 464.83 417.016 465.362 420.231C465.756 422.629 465.276 423.18 463.83 422.721L463.831 422.71Z" fill="#E7372D" fill-opacity="0.4"/>
<path d="M471.283 408.988C469.487 408.038 467.781 406.562 466.203 404.722C458.278 395.481 451.261 385.306 443.982 375.393C435.092 363.285 426.007 351.38 417.016 339.355C413.602 334.787 410.359 330.055 407.262 325.184C406.64 324.202 406.059 323.21 405.663 322.093C405.282 321.014 405.279 319.998 405.995 319.314C406.654 318.681 407.46 318.81 408.267 319.378C410.086 320.67 411.646 322.354 413.074 324.203C429.112 344.833 445.116 365.498 460.143 387.168C463.043 391.353 466.134 395.368 469.104 399.483C470.794 401.819 472.264 404.316 472.816 407.306C473.109 408.899 472.66 409.437 471.272 408.996L471.283 408.988Z" fill="#E7372D" fill-opacity="0.4"/>
<path d="M419.069 309.999C420.095 310.336 420.794 311.262 421.51 312.135C427.287 319.195 432.467 326.872 438.038 334.143C450.032 349.798 461.645 365.862 473.581 381.579C475.301 383.844 476.973 386.163 478.634 388.501C479.943 390.347 480.857 392.414 481.241 394.728C481.491 396.272 481.05 396.755 479.802 396.151C477.835 395.215 476.242 393.637 474.788 391.756C464.996 379.131 455.181 366.533 445.516 353.774C438.984 345.16 432.061 336.953 425.763 328.078C423.001 324.19 420.243 320.281 417.885 316.037C417.35 315.071 416.836 314.101 416.618 312.982C416.193 310.828 417.385 309.395 419.09 309.994L419.069 309.999Z" fill="#E7372D" fill-opacity="0.4"/>
<path d="M428.645 302.905C429.965 303.635 431.11 304.633 432.154 305.795C436.33 310.443 440.078 315.554 443.905 320.587C455.351 335.662 466.021 351.495 477.295 366.747C479.192 369.31 480.745 372.156 481.603 375.381C481.794 376.099 482.175 376.958 481.581 377.542C481.033 378.084 480.46 377.475 479.914 377.186C478.034 376.197 476.417 374.727 475.002 372.928C463.152 357.759 451.035 342.885 439.994 326.866C435.91 320.932 431.464 315.334 427.921 308.915C427.267 307.727 426.636 306.512 426.497 305.107C426.336 303.498 427.375 302.467 428.634 302.913L428.645 302.905Z" fill="#E7372D" fill-opacity="0.4"/>
<path d="M446.018 425.748C444.12 424.672 442.24 423.095 440.548 421.14C434.967 414.697 429.916 407.696 424.809 400.746C417.554 390.888 410.343 380.988 403.203 371.005C399.989 366.502 397.104 361.688 394.361 356.78C393.794 355.758 393.322 354.686 393.113 353.512C392.807 351.72 393.671 350.817 395.127 351.418C396.31 351.909 397.269 352.894 398.219 353.864C401.992 357.749 405.043 362.432 408.271 366.905C419.675 382.727 431.035 398.582 442.405 414.44C444.452 417.293 446.323 420.274 447.453 423.758C447.679 424.441 447.901 425.158 447.445 425.751C447.109 426.186 446.665 425.953 446.018 425.748Z" fill="#E7372D" fill-opacity="0.4"/>
<path d="M426.459 420.969C424.813 420.008 423.101 418.657 421.704 416.876C417.504 411.518 413.422 406.024 409.213 400.664C402.712 392.361 396.313 383.952 390.451 375.022C388.762 372.456 387.185 369.799 385.882 366.94C385.253 365.565 384.791 364.126 385.891 363.092C387.081 361.97 388.256 362.966 389.23 364.059C392.263 367.467 395.037 371.184 397.725 374.944C405.319 385.531 413.418 395.598 420.864 406.323C423.589 410.255 426.313 414.199 427.655 419.065C428.143 420.823 427.85 421.387 426.449 420.966L426.459 420.969Z" fill="#E7372D" fill-opacity="0.4"/>
<path d="M476.179 350.912C474.289 350.07 472.653 348.813 471.219 347.158C462.11 336.631 453.623 325.46 446.122 313.287C445.511 312.297 444.984 311.265 444.631 310.127C444.364 309.234 444.418 308.456 444.964 307.856C445.476 307.292 446.117 307.392 446.775 307.658C447.48 307.94 448.048 308.512 448.642 309.036C453.096 312.941 456.633 317.916 460.136 322.926C464.696 329.448 469.163 336.068 473.677 342.633C474.846 344.342 475.662 346.25 476.307 348.243C476.582 349.08 476.681 349.895 476.179 350.912Z" fill="#E7372D" fill-opacity="0.4"/>
<path d="M383.365 384.849C383.584 382.762 385.507 382.162 387.091 383.806C389.196 385.996 391.029 388.515 392.876 391.004C395.646 394.742 398.097 398.714 399.58 403.335C399.775 403.951 400.308 404.708 399.708 405.267C399.098 405.834 398.525 405.225 397.935 404.819C393.85 401.954 390.746 397.822 387.843 393.453C386.541 391.483 385.306 389.454 384.071 387.425C383.6 386.652 383.248 385.803 383.354 384.857L383.365 384.849Z" fill="#E7372D" fill-opacity="0.4"/>
<path d="M473.131 327.989C472.071 327.687 471.037 326.898 470.079 325.913C466.626 322.385 463.891 318.161 461.407 313.694C460.991 312.951 460.72 312.161 460.688 311.286C460.605 309.092 461.987 308.09 463.666 309.245C466.042 310.888 467.874 313.349 469.82 315.615C471.449 317.516 472.811 319.701 474.188 321.856C474.925 323.013 475.337 324.308 475.488 325.694C475.746 327.99 475.133 328.648 473.121 327.986L473.131 327.989Z" fill="#E7372D" fill-opacity="0.4"/>
</g>
<g filter="url(#filter2_i_675_10971)">
<path d="M421.629 52.9341C429.876 52.6644 437.767 53.054 441.588 59.2274C445.303 65.211 442.146 71.1047 438.016 76.5689C430.113 87.0278 416.407 90.7238 405.264 85.1598C393.089 79.0762 392.413 65.5706 404.434 59.2973C409.465 56.6801 414.639 53.7333 421.617 52.9241L421.629 52.9341ZM417.665 79.7255C424.761 80.6246 428.535 76.3392 432.843 72.8729C436.664 69.7961 435.999 65.8204 434.777 62.384C433.329 58.3084 428.487 59.627 424.892 59.6869C419.552 59.7768 415.529 62.5638 411.281 64.9014C407.566 66.9492 403.022 68.3377 404.624 73.2824C406.226 78.2271 410.32 80.0352 417.677 79.7255L417.665 79.7255Z" fill="#FFE419" fill-opacity="0.4"/>
<path d="M437.173 114.789C448.435 130.922 451.129 138.683 446.204 145.696C439.297 131.841 432.937 119.054 426.564 106.278C433.091 107.157 435.809 110.134 437.173 114.789Z" fill="#FFE419" fill-opacity="0.4"/>
<path d="M351.413 76.2196C344.613 77.4582 338.466 79.2263 332.26 75.9099C338.466 70.2659 369.996 67.8984 376.475 72.8032C368.192 74.821 360.23 75.77 351.413 76.2196Z" fill="#FFE419" fill-opacity="0.4"/>
<path d="M386.111 40.4475C387.262 43.3744 386.028 46.491 383.382 44.1136C375.751 37.2509 366.982 31.0475 361.938 22.167C374.778 23.5156 379.311 32.7057 386.123 40.4375L386.111 40.4475Z" fill="#FFE419" fill-opacity="0.4"/>
<path d="M385.992 125.747C392.222 118.395 393.112 108.935 402.451 102.981C404.908 107.666 401.799 111.132 400.41 114.599C398.785 118.654 396.387 122.5 394.275 126.416C391.451 131.66 388.615 132.04 386.004 125.747L385.992 125.747Z" fill="#FFE419" fill-opacity="0.4"/>
<path d="M458.712 80.6047C454.285 79.8155 450.405 79.4859 447.854 76.6689C450.82 74.3647 458.977 75.1638 472.323 79.0663C470.835 82.0964 466.298 82.6092 458.712 80.6047Z" fill="#FFE419" fill-opacity="0.4"/>
<path d="M452.03 44.8827C449.123 45.6819 447.319 47.7996 442.632 45.9216C449.74 42.3554 452.92 35.3229 463.244 36.5116C461.856 42.1856 455.851 42.0857 452.03 44.8927L452.03 44.8827Z" fill="#FFE419" fill-opacity="0.4"/>
</g>
<g filter="url(#filter3_i_675_10971)">
<path d="M66.9527 505.544C71.3831 501.983 76.0174 498.624 80.768 495.372C85.1926 492.337 89.7403 489.444 94.8277 487.184C99.0019 485.332 102.917 485.446 106.821 487.797C109.132 489.19 111.365 490.656 112.958 492.671C115.084 495.364 114.951 497.81 112.756 500.417C111.137 502.344 109.239 504.066 107.289 505.74C101.991 510.288 96.5127 514.685 90.8539 518.915C86.9207 521.855 82.8234 524.638 78.7385 527.424C75.9796 529.302 73.1929 531.148 70.2156 532.774C67.5541 534.225 64.7948 535.528 61.4892 535.573C58.909 535.607 56.7164 534.854 55.0249 533.099C54.3827 532.43 53.5561 531.882 52.7721 531.316C50.0358 529.344 48.8749 526.867 49.4463 523.921C49.948 521.339 51.4627 519.135 53.4178 517.152C57.5458 512.965 62.2853 509.287 66.9564 505.555L66.9527 505.544Z" fill="#01A7B2" fill-opacity="0.4"/>
<path d="M94.068 521.699C97.8828 518.803 101.597 515.815 105.604 513.11C109.036 510.794 112.675 508.704 116.565 506.961C120.231 505.318 123.714 506.294 126.961 508.015C128.802 508.991 130.31 510.381 131.443 511.938C133.588 514.888 133.349 517.842 131.072 520.642C128.689 523.571 125.881 526.198 122.968 528.757C118.341 532.822 113.482 536.673 108.473 540.395C105.681 542.468 102.654 544.282 99.8097 546.301C97.7691 547.747 95.7448 549.2 93.6882 550.632C92.1168 551.722 90.4973 552.769 88.5782 553.416C86.7521 554.033 84.9105 554.133 82.9481 553.745C79.0354 552.978 75.9707 551.083 73.8413 548.358C71.0164 544.748 71.2482 541.366 74.7532 537.822C80.1915 532.319 86.3144 527.371 92.7544 522.706C93.2015 522.382 93.6289 522.031 94.064 521.696L94.068 521.699Z" fill="#01A7B2" fill-opacity="0.4"/>
<path d="M73.8924 494.999C69.358 498.559 65.5273 501.345 61.3412 503.769C58.7741 505.256 56.0258 506.496 53.3442 507.834C51.8245 508.593 50.4588 509.552 48.8642 510.214C46.6588 511.13 44.5262 511.123 42.3572 510.014C40.8814 509.256 39.4303 508.507 38.1965 507.448C35.4394 505.086 35.9741 501.145 37.4609 499.104C39.1515 496.777 41.5153 494.98 43.9675 493.257C46.5401 491.449 49.0608 489.585 51.7256 487.86C54.956 485.767 58.1544 483.645 61.3527 481.523C64.6837 479.318 68.1813 477.31 71.639 475.258C72.6821 474.636 73.7998 474.119 75.0193 473.754C77.8384 472.906 80.2614 473.528 82.4582 475.158C84.8285 476.918 86.3049 479.029 86.1477 481.737C86.0222 483.899 84.7235 485.633 83.111 487.202C79.9995 490.219 76.4374 492.859 73.8924 494.999Z" fill="#01A7B2" fill-opacity="0.4"/>
</g>
<g filter="url(#filter4_i_675_10971)">
<path d="M91.7586 651.608C94.7719 638.118 99.8206 628.982 108.852 627.353C116.834 625.905 125.44 633.961 129.31 644.993C135.244 661.922 132.86 673.595 126.959 680.042C119.395 688.298 110.753 687.722 100.659 678.514C97.5561 675.685 95.7018 670.913 93.3998 666.984C91.8067 666.377 92.7973 670.336 90.8349 669.6C89.7336 662.985 91.3317 657.849 91.7586 651.608ZM111.11 678.668C118.127 681.284 122.769 676.889 125.862 668.965C128.532 662.129 127.971 656.72 124.262 651.229C121.146 646.619 117.823 643.095 113.755 641.935C107.518 640.165 102.748 643.054 98.354 647.272C93.5585 651.876 94.9997 664.011 100.796 671.007C103.915 674.773 107.169 676.385 111.115 678.666L111.11 678.668ZM128.716 658.411C129.103 659.378 129.027 660.893 130.035 661.142C131.038 650.956 125.645 637.734 118.696 633.294C111.411 628.639 103.666 631.039 103.195 638.388C104.414 637.908 105.523 637.401 106.671 637.048C114.885 634.487 124.879 643.877 128.716 658.411Z" fill="#FFA43E" fill-opacity="0.4"/>
</g>
<g filter="url(#filter5_i_675_10971)">
<path d="M161.177 228.621C173.26 232.927 181.613 239.401 183.557 250.173C185.282 259.692 178.648 269.429 169.12 273.399C154.499 279.486 144.056 276.024 138.03 268.691C130.315 259.291 130.341 249.1 137.909 237.668C140.234 234.154 144.346 232.223 147.687 229.717C148.134 227.866 144.693 228.82 145.233 226.539C151.014 225.6 155.64 227.773 161.177 228.621ZM138.358 250.021C136.439 258.177 140.581 263.909 147.754 268.003C153.941 271.537 158.687 271.17 163.33 267.085C167.227 263.653 170.154 259.917 170.951 255.169C172.165 247.89 169.347 242.089 165.375 236.66C161.041 230.735 150.403 231.772 144.548 238.244C141.396 241.725 140.153 245.486 138.359 250.027L138.358 250.021ZM157.236 271.958C156.403 272.363 155.06 272.19 154.897 273.368C163.95 275.115 175.327 269.464 178.86 261.489C182.564 253.128 180.011 243.836 173.493 242.875C173.985 244.343 174.495 245.682 174.871 247.059C177.593 256.915 169.858 268.219 157.236 271.958Z" fill="#FFE419" fill-opacity="0.4"/>
</g>
<g filter="url(#filter6_i_675_10971)">
<path d="M125.488 793.502C129.163 796.652 130.283 800.407 130.721 804.407C131.137 808.168 130.204 811.776 128.687 815.183C125.45 822.425 123.654 829.988 121.395 837.455C118.863 845.82 114.636 853.566 108.415 860.447C107.158 861.835 105.709 863.149 104.114 864.258C102.547 865.345 100.598 865.26 98.7444 864.548C97.1657 863.936 95.8316 862.999 94.5138 862.076C90.3746 859.171 86.3991 856.108 82.1415 853.308C78.6337 850.997 75.2343 848.526 72.0207 845.896C70.0239 844.261 67.7734 842.849 65.6863 841.296C63.1949 839.444 60.6641 837.624 58.3023 835.659C54.7678 832.717 51.0752 829.931 47.3094 827.204C45.8335 826.142 44.3411 825.074 43.0123 823.857C40.4694 821.514 40.7602 819.057 43.9767 817.479C50.1412 814.446 55.9979 810.999 62.2331 808.038C65.527 806.47 68.5245 804.462 71.5917 802.571C77.1936 799.119 83.3496 796.533 89.6946 794.209C93.8576 792.686 97.9295 790.997 102.37 790.013C108.447 788.667 114.376 788.973 120.294 790.712C122.366 791.322 124.222 792.216 125.494 793.507L125.488 793.502Z" fill="#E7372D" fill-opacity="0.4"/>
</g>
<g filter="url(#filter7_i_675_10971)">
<path d="M416.116 609.311C413.479 609.564 411.638 608.524 409.979 607.105C408.417 605.772 407.452 603.945 406.795 601.958C405.402 597.73 403.315 593.966 401.449 590.05C399.358 585.662 398.174 580.824 398.11 575.511C398.097 574.438 398.189 573.316 398.416 572.216C398.639 571.136 399.45 570.367 400.455 569.889C401.313 569.483 402.195 569.309 403.064 569.135C405.797 568.592 408.523 568.18 411.264 567.546C413.524 567.026 415.8 566.614 418.06 566.342C419.465 566.174 420.889 565.812 422.299 565.573C423.983 565.288 425.67 564.973 427.343 564.787C429.848 564.507 432.358 564.101 434.875 563.641C435.86 563.458 436.852 563.27 437.835 563.209C439.721 563.099 440.516 564.201 439.816 566.157C438.476 569.908 437.413 573.698 436.018 577.45C435.282 579.433 434.829 581.471 434.303 583.49C433.344 587.177 431.842 590.746 430.167 594.288C429.067 596.612 428.065 598.964 426.655 601.186C424.724 604.227 422.24 606.546 419.228 608.287C418.173 608.897 417.1 609.303 416.112 609.311L416.116 609.311Z" fill="#FFA43E" fill-opacity="0.4"/>
</g>
<g filter="url(#filter8_i_675_10971)">
<path d="M130.803 343.947C131.733 346.56 131.268 348.706 130.408 350.767C129.602 352.707 128.185 354.17 126.54 355.364C123.038 357.898 120.146 361.015 117.055 363.948C113.593 367.233 109.478 369.716 104.632 371.188C103.653 371.485 102.602 371.688 101.535 371.749C100.488 371.808 99.5695 371.188 98.8653 370.293C98.2671 369.528 97.8742 368.679 97.4852 367.841C96.2649 365.209 95.1663 362.548 93.8608 359.931C92.7863 357.772 91.8071 355.569 90.9601 353.344C90.434 351.961 89.7258 350.61 89.1342 349.24C88.4275 347.606 87.6933 345.974 87.0795 344.324C86.161 341.853 85.1246 339.41 84.0371 336.974C83.6091 336.023 83.1746 335.064 82.8591 334.081C82.259 332.194 83.0573 331.094 85.0328 331.289C88.821 331.657 92.5712 331.734 96.3743 332.159C98.3842 332.381 100.369 332.303 102.356 332.302C105.985 332.301 109.649 332.883 113.334 333.647C115.752 334.15 118.17 334.545 120.577 335.39C123.871 336.547 126.651 338.457 129.042 341.056C129.879 341.967 130.536 342.95 130.804 343.951L130.803 343.947Z" fill="#6FC85E" fill-opacity="0.4"/>
</g>
<g filter="url(#filter9_i_675_10971)">
<path d="M375.771 483.246C387.36 494.458 387.014 506.635 375.521 516.842C370.627 521.192 352.952 523.312 346.519 520.318C339.214 516.912 335.001 505.087 337.949 497.03C343.105 482.914 355.732 475.218 375.771 483.256L375.771 483.246ZM360.375 516.752C365.304 515.616 368.682 512.803 371.451 509.397C375.222 504.746 378.325 499.582 373.313 494.588C368.288 489.595 360.327 489.434 354.945 492.76C349.872 495.894 340.372 496.548 340.826 504.012C341.339 512.572 348.118 516.943 360.387 516.752L360.375 516.752Z" fill="#F7BEC6" fill-opacity="0.4"/>
</g>
<g filter="url(#filter10_i_675_10971)">
<path d="M368.494 708.958C357.482 709.044 346.482 709.968 335.569 713.767C333.642 714.44 331.817 715.356 329.936 716.099C322.317 719.125 320.909 728.264 323.609 732.749C327.342 738.949 332.87 743.609 338.785 747.987C342.476 750.718 346.439 753.097 350.646 755.176C351.914 755.803 352.622 756.57 351.706 758.19C346.649 767.064 342.002 776.075 337.463 785.116C335.093 789.837 333.616 790.349 328.793 788.494C318.688 784.596 309.468 779.569 301.529 772.887C296.465 768.63 291.38 764.363 288.124 758.729C284.001 751.583 280.41 744.163 279.802 735.595C279.446 730.524 280.277 725.425 281.575 720.289C283.759 711.661 287.593 703.501 292.983 695.758C303.483 680.686 318.074 671.482 336.649 667.778C346.33 665.849 355.951 664.709 365.511 665.023C372.042 665.237 378.565 665.594 384.904 666.65C386.567 666.933 388.389 666.631 389.825 667.685C391.539 668.94 391.932 670.541 391.207 672.506C388.043 681.046 384.814 689.566 381.649 698.106C380.819 700.349 380.142 702.621 379.312 704.853C379.009 705.687 378.505 706.502 377.995 707.277C377.148 708.548 376.07 709.106 374.404 708.925C372.493 708.717 370.481 708.93 368.505 708.958L368.494 708.958Z" fill="#01A7B2" fill-opacity="0.4"/>
</g>
<g filter="url(#filter11_i_675_10971)">
<path d="M121.778 52.6965C123.842 57.3686 126.261 61.8815 129.89 65.8288C130.532 66.5257 131.259 67.1341 131.922 67.798C134.615 70.4855 138.772 69.4043 140.189 67.4302C142.146 64.7014 143.116 61.4913 143.895 58.1681C144.38 56.0948 144.665 53.9701 144.778 51.797C144.812 51.1418 145.009 50.6991 145.868 50.7913C150.585 51.3128 155.284 51.6344 159.976 51.9044C162.426 52.0452 162.916 52.58 163.012 54.9742C163.21 59.9927 162.763 64.8423 161.374 69.4507C160.49 72.3891 159.606 75.3383 157.802 77.7602C155.513 80.8296 153.009 83.7225 149.467 85.5566C147.369 86.6405 145.041 87.2241 142.612 87.6158C138.529 88.2723 134.342 88.1403 130.048 87.2693C121.686 85.5707 115.074 81.0512 110.075 73.8244C107.47 70.0576 105.213 66.1717 103.587 62.044C102.476 59.2244 101.427 56.3819 100.711 53.4892C100.525 52.7288 100.061 52.009 100.246 51.2037C100.466 50.2434 101.077 49.7815 102.049 49.7292C106.274 49.5061 110.502 49.3142 114.728 49.091C115.837 49.0324 116.931 48.9029 118.036 48.8455C118.447 48.8215 118.888 48.8861 119.312 48.9606C120.01 49.0875 120.447 49.4438 120.676 50.1865C120.939 51.0381 121.4 51.8556 121.776 52.6917L121.778 52.6965Z" fill="#FFA43E" fill-opacity="0.4"/>
</g>
<g filter="url(#filter12_i_675_10971)">
<path d="M242.94 889.596C246.251 885.561 249.288 881.259 251.373 876.057C251.741 875.138 251.999 874.177 252.329 873.252C253.665 869.499 251.147 866.027 248.884 865.557C245.755 864.906 242.578 865.408 239.374 866.143C237.375 866.601 235.407 867.273 233.462 868.13C232.876 868.389 232.414 868.398 232.17 867.54C230.844 862.825 229.35 858.215 227.814 853.635C227.011 851.243 227.294 850.54 229.354 849.386C233.674 846.971 238.089 845.244 242.648 844.52C245.555 844.056 248.471 843.588 251.273 844.228C254.825 845.043 258.305 846.139 261.249 848.694C262.991 850.207 264.381 852.161 265.642 854.297C267.759 857.886 269.226 861.925 270.086 866.394C271.758 875.097 270.299 883.388 265.86 891.347C263.547 895.495 260.997 899.365 257.998 902.742C255.949 905.049 253.856 907.307 251.594 909.272C250.998 909.786 250.544 910.546 249.768 910.727C248.845 910.945 248.209 910.569 247.796 909.668C246.005 905.751 244.239 901.816 242.447 897.898C241.976 896.869 241.45 895.887 240.982 894.862C240.806 894.482 240.696 894.034 240.601 893.598C240.448 892.878 240.595 892.305 241.159 891.757C241.805 891.129 242.346 890.328 242.936 889.6L242.94 889.596Z" fill="#FFA43E" fill-opacity="0.4"/>
</g>
<g filter="url(#filter13_i_675_10971)">
<path d="M301.1 284.964C302.859 286.455 304.879 287.597 307.181 288.019C300.745 268.896 299.311 248.091 303.65 228.362C307.266 211.899 316.961 195.61 334.746 190.294C346.352 186.828 356.766 189.897 366.034 196.126C373.057 200.841 370.465 207.403 369.591 214.908C369.274 217.66 369.665 217.087 369.48 218.143C366.319 236.852 359.857 254.272 344.98 267.595C340.58 271.537 336.03 277.865 328.637 275.934C324.701 274.907 323.549 270.464 322.792 267.107C321.875 263.066 321.973 258.8 323.144 254.807C323.277 254.363 323.43 253.907 323.766 253.566C324.419 252.913 325.57 252.954 326.426 253.325C327.282 253.696 327.989 254.343 328.806 254.805C331.74 256.457 335.712 255.442 338.242 253.255C340.771 251.067 342.174 247.958 343.388 244.925C345.215 240.35 346.801 235.513 346.341 230.646C345.881 225.778 342.93 220.845 338.078 219.219C335.54 218.374 332.74 218.489 330.113 219.059C325.581 220.043 321.298 222.44 318.616 226.053C316.801 228.496 315.76 231.373 314.93 234.253C311.42 246.38 311.179 259.476 315.263 271.415C317.241 277.192 317.936 288.976 326.494 288.895C330.615 288.856 334.741 288.656 338.851 288.296C341.836 288.035 344.891 287.661 347.578 286.389C357.135 281.872 364.173 268.695 369.24 260.178C374.667 251.078 378.408 241.405 381.305 231.401C384.486 220.446 389.511 210.059 386.965 198.408C383.757 183.718 369.231 173.214 353.622 173.043C324.261 172.728 306.357 188.505 293.792 211.255C286.75 224.012 285.952 238.718 287.488 252.905C288.579 262.994 291.37 273.176 297.698 281.337C298.701 282.624 299.83 283.886 301.1 284.964ZM326.868 234.038C327.696 229.227 330.721 229.224 334.216 230.927C334.698 231.161 335.08 231.548 335.266 232.032C335.68 233.059 335.8 233.505 335.773 233.936C335.592 237.314 334.875 241.031 330.601 240.916C326.465 240.806 326.345 236.968 326.847 234.049L326.868 234.038Z" fill="#F7BEC6" fill-opacity="0.4"/>
</g>
<g filter="url(#filter14_i_675_10971)">
<path d="M270.553 370.121C263.329 368.79 256.201 368.127 249.062 366.152C241.709 364.118 234.455 361.622 227.014 359.973C222.05 358.867 216.9 359.73 218.631 366.282C221.366 376.602 224.277 386.863 227.343 397.079C228.841 402.088 230.383 407.091 231.953 412.085C233.351 416.514 235.108 420.891 236.524 425.281C241.9 422.734 247.098 417.102 251.475 412.97C257.454 407.323 262.618 400.88 268.446 395.093C273.691 389.884 280.252 383.836 286.872 380.806C284.704 373.973 276.554 371.238 270.551 370.129L270.553 370.121ZM267.977 381.206C258.345 391.301 251.72 402.05 243.756 411.69C242.014 413.051 240.98 413.843 239.175 415.222C234.314 399.355 231.529 383.705 227.749 366.792C241.331 372.384 253.714 377.261 267.985 381.208L267.977 381.206Z" fill="#FFA43E" fill-opacity="0.4"/>
</g>
<g filter="url(#filter15_i_675_10971)">
<path d="M430.662 812.387C427.309 815.613 424.304 819.043 420.684 821.982C416.956 825.009 413.05 827.811 409.467 831.029C407.075 833.173 405.527 836.16 409.23 837.745C415.065 840.237 420.94 842.617 426.851 844.899C429.748 846.021 432.659 847.118 435.576 848.196C438.165 849.15 440.866 849.899 443.444 850.829C444.293 847.09 443.64 842.275 443.374 838.452C443.01 833.227 441.967 828.123 441.48 822.924C441.041 818.245 440.711 812.569 441.806 808.004C437.808 806.538 433.452 809.711 430.665 812.391L430.662 812.387ZM434.843 817.912C435.895 826.705 438.387 834.193 439.858 841.952C439.832 843.367 439.809 844.2 439.768 845.655C430.548 842.16 422.215 837.677 412.917 833.229C420.657 828.332 427.611 823.783 434.847 817.908L434.843 817.912Z" fill="#FFE419" fill-opacity="0.4"/>
</g>
<path d="M237.57 123.217C237.57 123.217 211.184 110.801 198.753 133.669C186.328 156.538 216.343 174.298 216.343 174.298" stroke="#E7372D" stroke-opacity="0.4" stroke-width="7" stroke-linecap="round" stroke-linejoin="round"/>
<path d="M245.788 144.675L233.317 139.26" stroke="#E7372D" stroke-opacity="0.4" stroke-width="7" stroke-linecap="round" stroke-linejoin="round"/>
<path d="M224.663 157.615L238.513 163.632" stroke="#E7372D" stroke-opacity="0.4" stroke-width="7" stroke-linecap="round" stroke-linejoin="round"/>
<path d="M227.814 571.729C227.814 571.729 201.961 585.542 212.287 609.253C222.618 632.961 254.876 619.427 254.876 619.427" stroke="#FFE419" stroke-opacity="0.4" stroke-width="7" stroke-linecap="round" stroke-linejoin="round"/>
<path d="M249.731 577.775L237.825 584.601" stroke="#FFE419" stroke-opacity="0.4" stroke-width="7" stroke-linecap="round" stroke-linejoin="round"/>
<path d="M246.813 602.637L260.037 595.057" stroke="#FFE419" stroke-opacity="0.4" stroke-width="7" stroke-linecap="round" stroke-linejoin="round"/>
<defs>
<filter id="filter0_i_675_10971" x="12.79" y="142.153" width="77.665" height="81.332" filterUnits="userSpaceOnUse" color-interpolation-filters="sRGB">
<feFlood flood-opacity="0" result="BackgroundImageFix"/>
<feBlend mode="normal" in="SourceGraphic" in2="BackgroundImageFix" result="shape"/>
<feColorMatrix in="SourceAlpha" type="matrix" values="0 0 0 0 0 0 0 0 0 0 0 0 0 0 0 0 0 0 127 0" result="hardAlpha"/>
<feOffset dy="4"/>
<feComposite in2="hardAlpha" operator="arithmetic" k2="-1" k3="1"/>
<feColorMatrix type="matrix" values="0 0 0 0 0.434765 0 0 0 0 0.783333 0 0 0 0 0.368819 0 0 0 0.33 0"/>
<feBlend mode="normal" in2="shape" result="effect1_innerShadow_675_10971"/>
</filter>
<filter id="filter1_i_675_10971" x="383.335" y="302.809" width="98.5654" height="123.189" filterUnits="userSpaceOnUse" color-interpolation-filters="sRGB">
<feFlood flood-opacity="0" result="BackgroundImageFix"/>
<feBlend mode="normal" in="SourceGraphic" in2="BackgroundImageFix" result="shape"/>
<feColorMatrix in="SourceAlpha" type="matrix" values="0 0 0 0 0 0 0 0 0 0 0 0 0 0 0 0 0 0 127 0" result="hardAlpha"/>
<feOffset dx="1" dy="4"/>
<feComposite in2="hardAlpha" operator="arithmetic" k2="-1" k3="1"/>
<feColorMatrix type="matrix" values="0 0 0 0 0.733333 0 0 0 0 0.321569 0 0 0 0 0.298039 0 0 0 0.25 0"/>
<feBlend mode="normal" in2="shape" result="effect1_innerShadow_675_10971"/>
</filter>
<filter id="filter2_i_675_10971" x="332.26" y="22.167" width="140.062" height="123.529" filterUnits="userSpaceOnUse" color-interpolation-filters="sRGB">
<feFlood flood-opacity="0" result="BackgroundImageFix"/>
<feBlend mode="normal" in="SourceGraphic" in2="BackgroundImageFix" result="shape"/>
<feColorMatrix in="SourceAlpha" type="matrix" values="0 0 0 0 0 0 0 0 0 0 0 0 0 0 0 0 0 0 127 0" result="hardAlpha"/>
<feOffset dx="1" dy="4"/>
<feComposite in2="hardAlpha" operator="arithmetic" k2="-1" k3="1"/>
<feColorMatrix type="matrix" values="0 0 0 0 0.996078 0 0 0 0 0.745098 0 0 0 0 0.364706 0 0 0 0.25 0"/>
<feBlend mode="normal" in2="shape" result="effect1_innerShadow_675_10971"/>
</filter>
<filter id="filter3_i_675_10971" x="36.2363" y="473.375" width="96.6875" height="80.5996" filterUnits="userSpaceOnUse" color-interpolation-filters="sRGB">
<feFlood flood-opacity="0" result="BackgroundImageFix"/>
<feBlend mode="normal" in="SourceGraphic" in2="BackgroundImageFix" result="shape"/>
<feColorMatrix in="SourceAlpha" type="matrix" values="0 0 0 0 0 0 0 0 0 0 0 0 0 0 0 0 0 0 127 0" result="hardAlpha"/>
<feOffset dx="1" dy="4"/>
<feComposite in2="hardAlpha" operator="arithmetic" k2="-1" k3="1"/>
<feColorMatrix type="matrix" values="0 0 0 0 0.298039 0 0 0 0 0.552941 0 0 0 0 0.635294 0 0 0 0.25 0"/>
<feBlend mode="normal" in2="shape" result="effect1_innerShadow_675_10971"/>
</filter>
<filter id="filter4_i_675_10971" x="90.4541" y="627.185" width="42.291" height="58.666" filterUnits="userSpaceOnUse" color-interpolation-filters="sRGB">
<feFlood flood-opacity="0" result="BackgroundImageFix"/>
<feBlend mode="normal" in="SourceGraphic" in2="BackgroundImageFix" result="shape"/>
<feColorMatrix in="SourceAlpha" type="matrix" values="0 0 0 0 0 0 0 0 0 0 0 0 0 0 0 0 0 0 127 0" result="hardAlpha"/>
<feOffset dx="1" dy="4"/>
<feComposite in2="hardAlpha" operator="arithmetic" k2="-1" k3="1"/>
<feColorMatrix type="matrix" values="0 0 0 0 0.898039 0 0 0 0 0.431373 0 0 0 0 0 0 0 0 0.25 0"/>
<feBlend mode="normal" in2="shape" result="effect1_innerShadow_675_10971"/>
</filter>
<filter id="filter5_i_675_10971" x="132.238" y="226.308" width="51.5918" height="50.2173" filterUnits="userSpaceOnUse" color-interpolation-filters="sRGB">
<feFlood flood-opacity="0" result="BackgroundImageFix"/>
<feBlend mode="normal" in="SourceGraphic" in2="BackgroundImageFix" result="shape"/>
<feColorMatrix in="SourceAlpha" type="matrix" values="0 0 0 0 0 0 0 0 0 0 0 0 0 0 0 0 0 0 127 0" result="hardAlpha"/>
<feOffset dx="1" dy="4"/>
<feComposite in2="hardAlpha" operator="arithmetic" k2="-1" k3="1"/>
<feColorMatrix type="matrix" values="0 0 0 0 0.898039 0 0 0 0 0.431373 0 0 0 0 0 0 0 0 0.25 0"/>
<feBlend mode="normal" in2="shape" result="effect1_innerShadow_675_10971"/>
</filter>
<filter id="filter6_i_675_10971" x="41.3086" y="789.175" width="89.5117" height="75.9053" filterUnits="userSpaceOnUse" color-interpolation-filters="sRGB">
<feFlood flood-opacity="0" result="BackgroundImageFix"/>
<feBlend mode="normal" in="SourceGraphic" in2="BackgroundImageFix" result="shape"/>
<feColorMatrix in="SourceAlpha" type="matrix" values="0 0 0 0 0 0 0 0 0 0 0 0 0 0 0 0 0 0 127 0" result="hardAlpha"/>
<feOffset dx="1" dy="4"/>
<feComposite in2="hardAlpha" operator="arithmetic" k2="-1" k3="1"/>
<feColorMatrix type="matrix" values="0 0 0 0 0.733333 0 0 0 0 0.321569 0 0 0 0 0.298039 0 0 0 0.25 0"/>
<feBlend mode="normal" in2="shape" result="effect1_innerShadow_675_10971"/>
</filter>
<filter id="filter7_i_675_10971" x="398.108" y="563.202" width="41.959" height="46.1475" filterUnits="userSpaceOnUse" color-interpolation-filters="sRGB">
<feFlood flood-opacity="0" result="BackgroundImageFix"/>
<feBlend mode="normal" in="SourceGraphic" in2="BackgroundImageFix" result="shape"/>
<feColorMatrix in="SourceAlpha" type="matrix" values="0 0 0 0 0 0 0 0 0 0 0 0 0 0 0 0 0 0 127 0" result="hardAlpha"/>
<feOffset dx="1" dy="4"/>
<feComposite in2="hardAlpha" operator="arithmetic" k2="-1" k3="1"/>
<feColorMatrix type="matrix" values="0 0 0 0 0.733333 0 0 0 0 0.321569 0 0 0 0 0.298039 0 0 0 0.25 0"/>
<feBlend mode="normal" in2="shape" result="effect1_innerShadow_675_10971"/>
</filter>
<filter id="filter8_i_675_10971" x="82.6641" y="331.267" width="48.6494" height="40.4863" filterUnits="userSpaceOnUse" color-interpolation-filters="sRGB">
<feFlood flood-opacity="0" result="BackgroundImageFix"/>
<feBlend mode="normal" in="SourceGraphic" in2="BackgroundImageFix" result="shape"/>
<feColorMatrix in="SourceAlpha" type="matrix" values="0 0 0 0 0 0 0 0 0 0 0 0 0 0 0 0 0 0 127 0" result="hardAlpha"/>
<feOffset dx="1" dy="4"/>
<feComposite in2="hardAlpha" operator="arithmetic" k2="-1" k3="1"/>
<feColorMatrix type="matrix" values="0 0 0 0 0.435294 0 0 0 0 0.784314 0 0 0 0 0.368627 0 0 0 0.25 0"/>
<feBlend mode="normal" in2="shape" result="effect1_innerShadow_675_10971"/>
</filter>
<filter id="filter9_i_675_10971" x="337" y="480" width="47.3037" height="41.7163" filterUnits="userSpaceOnUse" color-interpolation-filters="sRGB">
<feFlood flood-opacity="0" result="BackgroundImageFix"/>
<feBlend mode="normal" in="SourceGraphic" in2="BackgroundImageFix" result="shape"/>
<feColorMatrix in="SourceAlpha" type="matrix" values="0 0 0 0 0 0 0 0 0 0 0 0 0 0 0 0 0 0 127 0" result="hardAlpha"/>
<feOffset dx="1" dy="4"/>
<feComposite in2="hardAlpha" operator="arithmetic" k2="-1" k3="1"/>
<feColorMatrix type="matrix" values="0 0 0 0 0 0 0 0 0 0 0 0 0 0 0 0 0 0 0.25 0"/>
<feBlend mode="normal" in2="shape" result="effect1_innerShadow_675_10971"/>
</filter>
<filter id="filter10_i_675_10971" x="279.719" y="664.971" width="111.834" height="124.522" filterUnits="userSpaceOnUse" color-interpolation-filters="sRGB">
<feFlood flood-opacity="0" result="BackgroundImageFix"/>
<feBlend mode="normal" in="SourceGraphic" in2="BackgroundImageFix" result="shape"/>
<feColorMatrix in="SourceAlpha" type="matrix" values="0 0 0 0 0 0 0 0 0 0 0 0 0 0 0 0 0 0 127 0" result="hardAlpha"/>
<feOffset dx="1" dy="4"/>
<feComposite in2="hardAlpha" operator="arithmetic" k2="-1" k3="1"/>
<feColorMatrix type="matrix" values="0 0 0 0 0.298039 0 0 0 0 0.552941 0 0 0 0 0.635294 0 0 0 0.25 0"/>
<feBlend mode="normal" in2="shape" result="effect1_innerShadow_675_10971"/>
</filter>
<filter id="filter11_i_675_10971" x="100.203" y="48.8403" width="62.8535" height="39.189" filterUnits="userSpaceOnUse" color-interpolation-filters="sRGB">
<feFlood flood-opacity="0" result="BackgroundImageFix"/>
<feBlend mode="normal" in="SourceGraphic" in2="BackgroundImageFix" result="shape"/>
<feColorMatrix in="SourceAlpha" type="matrix" values="0 0 0 0 0 0 0 0 0 0 0 0 0 0 0 0 0 0 127 0" result="hardAlpha"/>
<feOffset dx="1" dy="4"/>
<feComposite in2="hardAlpha" operator="arithmetic" k2="-1" k3="1"/>
<feColorMatrix type="matrix" values="0 0 0 0 0.298039 0 0 0 0 0.552941 0 0 0 0 0.635294 0 0 0 0.25 0"/>
<feBlend mode="normal" in2="shape" result="effect1_innerShadow_675_10971"/>
</filter>
<filter id="filter12_i_675_10971" x="227.398" y="843.916" width="43.3604" height="66.8721" filterUnits="userSpaceOnUse" color-interpolation-filters="sRGB">
<feFlood flood-opacity="0" result="BackgroundImageFix"/>
<feBlend mode="normal" in="SourceGraphic" in2="BackgroundImageFix" result="shape"/>
<feColorMatrix in="SourceAlpha" type="matrix" values="0 0 0 0 0 0 0 0 0 0 0 0 0 0 0 0 0 0 127 0" result="hardAlpha"/>
<feOffset dx="1" dy="4"/>
<feComposite in2="hardAlpha" operator="arithmetic" k2="-1" k3="1"/>
<feColorMatrix type="matrix" values="0 0 0 0 1 0 0 0 0 0.643137 0 0 0 0 0.243137 0 0 0 0.25 0"/>
<feBlend mode="normal" in2="shape" result="effect1_innerShadow_675_10971"/>
</filter>
<filter id="filter13_i_675_10971" x="286.831" y="173.038" width="100.83" height="115.857" filterUnits="userSpaceOnUse" color-interpolation-filters="sRGB">
<feFlood flood-opacity="0" result="BackgroundImageFix"/>
<feBlend mode="normal" in="SourceGraphic" in2="BackgroundImageFix" result="shape"/>
<feColorMatrix in="SourceAlpha" type="matrix" values="0 0 0 0 0 0 0 0 0 0 0 0 0 0 0 0 0 0 127 0" result="hardAlpha"/>
<feOffset dy="4"/>
<feComposite in2="hardAlpha" operator="arithmetic" k2="-1" k3="1"/>
<feColorMatrix type="matrix" values="0 0 0 0 0 0 0 0 0 0 0 0 0 0 0 0 0 0 0.25 0"/>
<feBlend mode="normal" in2="shape" result="effect1_innerShadow_675_10971"/>
</filter>
<filter id="filter14_i_675_10971" x="218.288" y="359.567" width="68.584" height="65.7134" filterUnits="userSpaceOnUse" color-interpolation-filters="sRGB">
<feFlood flood-opacity="0" result="BackgroundImageFix"/>
<feBlend mode="normal" in="SourceGraphic" in2="BackgroundImageFix" result="shape"/>
<feColorMatrix in="SourceAlpha" type="matrix" values="0 0 0 0 0 0 0 0 0 0 0 0 0 0 0 0 0 0 127 0" result="hardAlpha"/>
<feOffset dy="4"/>
<feComposite in2="hardAlpha" operator="arithmetic" k2="-1" k3="1"/>
<feColorMatrix type="matrix" values="0 0 0 0 0 0 0 0 0 0 0 0 0 0 0 0 0 0 0.25 0"/>
<feBlend mode="normal" in2="shape" result="effect1_innerShadow_675_10971"/>
</filter>
<filter id="filter15_i_675_10971" x="407.016" y="807.633" width="36.8496" height="43.1963" filterUnits="userSpaceOnUse" color-interpolation-filters="sRGB">
<feFlood flood-opacity="0" result="BackgroundImageFix"/>
<feBlend mode="normal" in="SourceGraphic" in2="BackgroundImageFix" result="shape"/>
<feColorMatrix in="SourceAlpha" type="matrix" values="0 0 0 0 0 0 0 0 0 0 0 0 0 0 0 0 0 0 127 0" result="hardAlpha"/>
<feOffset dy="4"/>
<feComposite in2="hardAlpha" operator="arithmetic" k2="-1" k3="1"/>
<feColorMatrix type="matrix" values="0 0 0 0 0 0 0 0 0 0 0 0 0 0 0 0 0 0 0.25 0"/>
<feBlend mode="normal" in2="shape" result="effect1_innerShadow_675_10971"/>
</filter>
</defs>
</svg>
